<svg xmlns="http://www.w3.org/2000/svg" width="1800" height="1100" viewBox="0 0 1800 1100">
<rect width="100%" height="100%" fill="#fbfaf5"/>
<text x="56" y="48" font-family="Inter, ui-sans-serif, system-ui, -apple-system, BlinkMacSystemFont, Helvetica, Arial" font-size="34" font-weight="800" fill="#111">FrontRES Concept Tabs</text>
<text x="56" y="76" font-family="Inter, ui-sans-serif, system-ui, -apple-system, BlinkMacSystemFont, Helvetica, Arial" font-size="16" fill="#555">Shared IDs connect this concept map with repo mind map and training flow tree.</text>
<path d="M 77.52829726571508 91.2289904721838 C 59.52829726571508 91.2289904721838 55.52829726571508 95.2289904721838 55.52829726571508 113.2289904721838 L 55.52829726571508 123.83287323943296 C 55.52829726571508 140.83287323943296 60.52829726571508 145.83287323943296 77.52829726571508 145.83287323943296 L 534.1500470326137 145.83287323943296 C 551.1500470326137 145.83287323943296 556.1500470326137 140.83287323943296 556.1500470326137 123.83287323943296 L 556.1500470326137 113.2289904721838 C 556.1500470326137 96.2289904721838 551.1500470326137 91.2289904721838 534.1500470326137 91.2289904721838 Z" fill="#ef6f6c" stroke="#151515" stroke-width="2.2" opacity="0.92"/>
<path d="M 76.68928380271245 92.25507995544322 C 58.68928380271245 92.25507995544322 54.68928380271245 96.25507995544322 54.68928380271245 114.25507995544322 L 54.68928380271245 122.48911794727002 C 54.68928380271245 139.48911794727002 59.68928380271245 144.48911794727002 76.68928380271245 144.48911794727002 L 533.715884507036 144.48911794727002 C 550.715884507036 144.48911794727002 555.715884507036 139.48911794727002 555.715884507036 122.48911794727002 L 555.715884507036 114.25507995544322 C 555.715884507036 97.25507995544322 550.715884507036 92.25507995544322 533.715884507036 92.25507995544322 Z" fill="none" stroke="#151515" stroke-width="1.3" opacity="0.55"/>
<text x="80" y="128" font-family="Inter, ui-sans-serif, system-ui, -apple-system, BlinkMacSystemFont, Helvetica, Arial" font-size="24" font-weight="800" fill="#111">T1 Real Problem</text>
<path d="M 112.53016256354749 181.4103498432596 C 94.53016256354749 181.4103498432596 90.53016256354749 185.4103498432596 90.53016256354749 203.4103498432596 L 90.53016256354749 272.46568475131426 C 90.53016256354749 289.46568475131426 95.53016256354749 294.46568475131426 112.53016256354749 294.46568475131426 L 497.79138318935475 294.46568475131426 C 514.7913831893547 294.46568475131426 519.7913831893547 289.46568475131426 519.7913831893547 272.46568475131426 L 519.7913831893547 203.4103498432596 C 519.7913831893547 186.4103498432596 514.7913831893547 181.4103498432596 497.79138318935475 181.4103498432596 Z" fill="#fffaf0" stroke="#ef6f6c" stroke-width="2.2" opacity="0.92"/>
<path d="M 110.99759473354133 181.64535142190306 C 92.99759473354133 181.64535142190306 88.99759473354133 185.64535142190306 88.99759473354133 203.64535142190306 L 88.99759473354133 273.0257686037905 C 88.99759473354133 290.0257686037905 93.99759473354133 295.0257686037905 110.99759473354133 295.0257686037905 L 498.79166407723426 295.0257686037905 C 515.7916640772343 295.0257686037905 520.7916640772343 290.0257686037905 520.7916640772343 273.0257686037905 L 520.7916640772343 203.64535142190306 C 520.7916640772343 186.64535142190306 515.7916640772343 181.64535142190306 498.79166407723426 181.64535142190306 Z" fill="none" stroke="#ef6f6c" stroke-width="1.3" opacity="0.55"/>
<text x="110" y="216" font-family="Inter, ui-sans-serif, system-ui, -apple-system, BlinkMacSystemFont, Helvetica, Arial" font-size="18" font-weight="800" fill="#111">P-01 Reference Artifact</text>
<text x="110" y="244" font-family="Inter, ui-sans-serif, system-ui, -apple-system, BlinkMacSystemFont, Helvetica, Arial" font-size="14" fill="#3a3a3a">Video or retargeting artifacts corrupt the</text>
<text x="110" y="263" font-family="Inter, ui-sans-serif, system-ui, -apple-system, BlinkMacSystemFont, Helvetica, Arial" font-size="14" fill="#3a3a3a">root-level reference.</text>
<path d="M 112.50297671528824 326.1758502668454 C 94.50297671528824 326.1758502668454 90.50297671528824 330.1758502668454 90.50297671528824 348.1758502668454 L 90.50297671528824 415.5202029380089 C 90.50297671528824 432.5202029380089 95.50297671528824 437.5202029380089 112.50297671528824 437.5202029380089 L 498.2504373078864 437.5202029380089 C 515.2504373078864 437.5202029380089 520.2504373078864 432.5202029380089 520.2504373078864 415.5202029380089 L 520.2504373078864 348.1758502668454 C 520.2504373078864 331.1758502668454 515.2504373078864 326.1758502668454 498.2504373078864 326.1758502668454 Z" fill="#fffaf0" stroke="#ef6f6c" stroke-width="2.2" opacity="0.92"/>
<path d="M 112.29894545363713 326.42574342340686 C 94.29894545363713 326.42574342340686 90.29894545363713 330.42574342340686 90.29894545363713 348.42574342340686 L 90.29894545363713 415.4499917849986 C 90.29894545363713 432.4499917849986 95.29894545363713 437.4499917849986 112.29894545363713 437.4499917849986 L 497.1843449946151 437.4499917849986 C 514.1843449946151 437.4499917849986 519.1843449946151 432.4499917849986 519.1843449946151 415.4499917849986 L 519.1843449946151 348.42574342340686 C 519.1843449946151 331.42574342340686 514.1843449946151 326.42574342340686 497.1843449946151 326.42574342340686 Z" fill="none" stroke="#ef6f6c" stroke-width="1.3" opacity="0.55"/>
<text x="110" y="360" font-family="Inter, ui-sans-serif, system-ui, -apple-system, BlinkMacSystemFont, Helvetica, Arial" font-size="18" font-weight="800" fill="#111">P-02 Robustness Budget</text>
<text x="110" y="388" font-family="Inter, ui-sans-serif, system-ui, -apple-system, BlinkMacSystemFont, Helvetica, Arial" font-size="14" fill="#3a3a3a">Artifacts consume the frozen GMT tracker</text>
<text x="110" y="407" font-family="Inter, ui-sans-serif, system-ui, -apple-system, BlinkMacSystemFont, Helvetica, Arial" font-size="14" fill="#3a3a3a">margin before real disturbances.</text>
<path d="M 111.19648282279377 470.9145103061601 C 93.19648282279377 470.9145103061601 89.19648282279377 474.9145103061601 89.19648282279377 492.9145103061601 L 89.19648282279377 559.2610467153354 C 89.19648282279377 576.2610467153354 94.19648282279377 581.2610467153354 111.19648282279377 581.2610467153354 L 497.3697376611635 581.2610467153354 C 514.3697376611635 581.2610467153354 519.3697376611635 576.2610467153354 519.3697376611635 559.2610467153354 L 519.3697376611635 492.9145103061601 C 519.3697376611635 475.9145103061601 514.3697376611635 470.9145103061601 497.3697376611635 470.9145103061601 Z" fill="#fffaf0" stroke="#ef6f6c" stroke-width="2.2" opacity="0.92"/>
<path d="M 113.55466752047214 468.928554023978 C 95.55466752047214 468.928554023978 91.55466752047214 472.928554023978 91.55466752047214 490.928554023978 L 91.55466752047214 558.7939424092401 C 91.55466752047214 575.7939424092401 96.55466752047214 580.7939424092401 113.55466752047214 580.7939424092401 L 496.7437794160702 580.7939424092401 C 513.7437794160702 580.7939424092401 518.7437794160702 575.7939424092401 518.7437794160702 558.7939424092401 L 518.7437794160702 490.928554023978 C 518.7437794160702 473.928554023978 513.7437794160702 468.928554023978 496.7437794160702 468.928554023978 Z" fill="none" stroke="#ef6f6c" stroke-width="1.3" opacity="0.55"/>
<text x="110" y="504" font-family="Inter, ui-sans-serif, system-ui, -apple-system, BlinkMacSystemFont, Helvetica, Arial" font-size="18" font-weight="800" fill="#111">P-03 Executable Gap</text>
<text x="110" y="532" font-family="Inter, ui-sans-serif, system-ui, -apple-system, BlinkMacSystemFont, Helvetica, Arial" font-size="14" fill="#3a3a3a">A geometrically plausible reference can still</text>
<text x="110" y="551" font-family="Inter, ui-sans-serif, system-ui, -apple-system, BlinkMacSystemFont, Helvetica, Arial" font-size="14" fill="#3a3a3a">be dynamically hard to execute.</text>
<path d="M 625.0438873300882 92.2940664081807 C 607.0438873300882 92.2940664081807 603.0438873300882 96.2940664081807 603.0438873300882 114.2940664081807 L 603.0438873300882 124.12058560692822 C 603.0438873300882 141.12058560692822 608.0438873300882 146.12058560692822 625.0438873300882 146.12058560692822 L 1081.4391150304073 146.12058560692822 C 1098.4391150304073 146.12058560692822 1103.4391150304073 141.12058560692822 1103.4391150304073 124.12058560692822 L 1103.4391150304073 114.2940664081807 C 1103.4391150304073 97.2940664081807 1098.4391150304073 92.2940664081807 1081.4391150304073 92.2940664081807 Z" fill="#f2b84b" stroke="#151515" stroke-width="2.2" opacity="0.92"/>
<path d="M 626.4999128939072 91.04649555169235 C 608.4999128939072 91.04649555169235 604.4999128939072 95.04649555169235 604.4999128939072 113.04649555169235 L 604.4999128939072 122.73614656363497 C 604.4999128939072 139.73614656363497 609.4999128939072 144.73614656363497 626.4999128939072 144.73614656363497 L 1082.204995531778 144.73614656363497 C 1099.204995531778 144.73614656363497 1104.204995531778 139.73614656363497 1104.204995531778 122.73614656363497 L 1104.204995531778 113.04649555169235 C 1104.204995531778 96.04649555169235 1099.204995531778 91.04649555169235 1082.204995531778 91.04649555169235 Z" fill="none" stroke="#151515" stroke-width="1.3" opacity="0.55"/>
<text x="628" y="128" font-family="Inter, ui-sans-serif, system-ui, -apple-system, BlinkMacSystemFont, Helvetica, Arial" font-size="24" font-weight="800" fill="#111">T2 Concept Variables</text>
<path d="M 659.9071596721478 181.0068626445718 C 641.9071596721478 181.0068626445718 637.9071596721478 185.0068626445718 637.9071596721478 203.0068626445718 L 637.9071596721478 271.4456567155439 C 637.9071596721478 288.4456567155439 642.9071596721478 293.4456567155439 659.9071596721478 293.4456567155439 L 1045.887819989919 293.4456567155439 C 1062.887819989919 293.4456567155439 1067.887819989919 288.4456567155439 1067.887819989919 271.4456567155439 L 1067.887819989919 203.0068626445718 C 1067.887819989919 186.0068626445718 1062.887819989919 181.0068626445718 1045.887819989919 181.0068626445718 Z" fill="#fffaf0" stroke="#f2b84b" stroke-width="2.2" opacity="0.92"/>
<path d="M 658.3116664957721 181.80929398286244 C 640.3116664957721 181.80929398286244 636.3116664957721 185.80929398286244 636.3116664957721 203.80929398286244 L 636.3116664957721 271.1873516535023 C 636.3116664957721 288.1873516535023 641.3116664957721 293.1873516535023 658.3116664957721 293.1873516535023 L 1045.0576164164247 293.1873516535023 C 1062.0576164164247 293.1873516535023 1067.0576164164247 288.1873516535023 1067.0576164164247 271.1873516535023 L 1067.0576164164247 203.80929398286244 C 1067.0576164164247 186.80929398286244 1062.0576164164247 181.80929398286244 1045.0576164164247 181.80929398286244 Z" fill="none" stroke="#f2b84b" stroke-width="1.3" opacity="0.55"/>
<text x="658" y="216" font-family="Inter, ui-sans-serif, system-ui, -apple-system, BlinkMacSystemFont, Helvetica, Arial" font-size="18" font-weight="800" fill="#111">C-01 Geometric Repair Need</text>
<text x="658" y="244" font-family="Inter, ui-sans-serif, system-ui, -apple-system, BlinkMacSystemFont, Helvetica, Arial" font-size="14" fill="#3a3a3a">What should be repaired in task-space SE(3).</text>
<path d="M 660.700807639907 325.6043212484801 C 642.700807639907 325.6043212484801 638.700807639907 329.6043212484801 638.700807639907 347.6043212484801 L 638.700807639907 416.3835094830283 C 638.700807639907 433.3835094830283 643.700807639907 438.3835094830283 660.700807639907 438.3835094830283 L 1045.9853818367992 438.3835094830283 C 1062.9853818367992 438.3835094830283 1067.9853818367992 433.3835094830283 1067.9853818367992 416.3835094830283 L 1067.9853818367992 347.6043212484801 C 1067.9853818367992 330.6043212484801 1062.9853818367992 325.6043212484801 1045.9853818367992 325.6043212484801 Z" fill="#fffaf0" stroke="#f2b84b" stroke-width="2.2" opacity="0.92"/>
<path d="M 659.3273461224162 325.97514912255866 C 641.3273461224162 325.97514912255866 637.3273461224162 329.97514912255866 637.3273461224162 347.97514912255866 L 637.3273461224162 417.22686681772177 C 637.3273461224162 434.22686681772177 642.3273461224162 439.22686681772177 659.3273461224162 439.22686681772177 L 1046.6519661211482 439.22686681772177 C 1063.6519661211482 439.22686681772177 1068.6519661211482 434.22686681772177 1068.6519661211482 417.22686681772177 L 1068.6519661211482 347.97514912255866 C 1068.6519661211482 330.97514912255866 1063.6519661211482 325.97514912255866 1046.6519661211482 325.97514912255866 Z" fill="none" stroke="#f2b84b" stroke-width="1.3" opacity="0.55"/>
<text x="658" y="360" font-family="Inter, ui-sans-serif, system-ui, -apple-system, BlinkMacSystemFont, Helvetica, Arial" font-size="18" font-weight="800" fill="#111">C-02 Executable Floor</text>
<text x="658" y="388" font-family="Inter, ui-sans-serif, system-ui, -apple-system, BlinkMacSystemFont, Helvetica, Arial" font-size="14" fill="#3a3a3a">The GMT capability boundary used to judge</text>
<text x="658" y="407" font-family="Inter, ui-sans-serif, system-ui, -apple-system, BlinkMacSystemFont, Helvetica, Arial" font-size="14" fill="#3a3a3a">whether a reference is executable.</text>
<path d="M 660.331900679972 469.3905165567412 C 642.331900679972 469.3905165567412 638.331900679972 473.3905165567412 638.331900679972 491.3905165567412 L 638.331900679972 559.6731098679047 C 638.331900679972 576.6731098679047 643.331900679972 581.6731098679047 660.331900679972 581.6731098679047 L 1046.308311954017 581.6731098679047 C 1063.308311954017 581.6731098679047 1068.308311954017 576.6731098679047 1068.308311954017 559.6731098679047 L 1068.308311954017 491.3905165567412 C 1068.308311954017 474.3905165567412 1063.308311954017 469.3905165567412 1046.308311954017 469.3905165567412 Z" fill="#fffaf0" stroke="#f2b84b" stroke-width="2.2" opacity="0.92"/>
<path d="M 658.96387814646 470.52413032182886 C 640.96387814646 470.52413032182886 636.96387814646 474.52413032182886 636.96387814646 492.52413032182886 L 636.96387814646 560.1805153180518 C 636.96387814646 577.1805153180518 641.96387814646 582.1805153180518 658.96387814646 582.1805153180518 L 1045.444286775438 582.1805153180518 C 1062.444286775438 582.1805153180518 1067.444286775438 577.1805153180518 1067.444286775438 560.1805153180518 L 1067.444286775438 492.52413032182886 C 1067.444286775438 475.52413032182886 1062.444286775438 470.52413032182886 1045.444286775438 470.52413032182886 Z" fill="none" stroke="#f2b84b" stroke-width="1.3" opacity="0.55"/>
<text x="658" y="504" font-family="Inter, ui-sans-serif, system-ui, -apple-system, BlinkMacSystemFont, Helvetica, Arial" font-size="18" font-weight="800" fill="#111">C-03 State Risk / Alpha</text>
<text x="658" y="532" font-family="Inter, ui-sans-serif, system-ui, -apple-system, BlinkMacSystemFont, Helvetica, Arial" font-size="14" fill="#3a3a3a">Whether the current state needs conservative</text>
<text x="658" y="551" font-family="Inter, ui-sans-serif, system-ui, -apple-system, BlinkMacSystemFont, Helvetica, Arial" font-size="14" fill="#3a3a3a">recovery before repair.</text>
<path d="M 660.3749695650768 614.1926890768955 C 642.3749695650768 614.1926890768955 638.3749695650768 618.1926890768955 638.3749695650768 636.1926890768955 L 638.3749695650768 703.7704867433458 C 638.3749695650768 720.7704867433458 643.3749695650768 725.7704867433458 660.3749695650768 725.7704867433458 L 1045.058093812324 725.7704867433458 C 1062.058093812324 725.7704867433458 1067.058093812324 720.7704867433458 1067.058093812324 703.7704867433458 L 1067.058093812324 636.1926890768955 C 1067.058093812324 619.1926890768955 1062.058093812324 614.1926890768955 1045.058093812324 614.1926890768955 Z" fill="#fffaf0" stroke="#f2b84b" stroke-width="2.2" opacity="0.92"/>
<path d="M 660.3275714307223 612.3987594809507 C 642.3275714307223 612.3987594809507 638.3275714307223 616.3987594809507 638.3275714307223 634.3987594809507 L 638.3275714307223 703.486966288081 C 638.3275714307223 720.486966288081 643.3275714307223 725.486966288081 660.3275714307223 725.486966288081 L 1045.609827463688 725.486966288081 C 1062.609827463688 725.486966288081 1067.609827463688 720.486966288081 1067.609827463688 703.486966288081 L 1067.609827463688 634.3987594809507 C 1067.609827463688 617.3987594809507 1062.609827463688 612.3987594809507 1045.609827463688 612.3987594809507 Z" fill="none" stroke="#f2b84b" stroke-width="1.3" opacity="0.55"/>
<text x="658" y="648" font-family="Inter, ui-sans-serif, system-ui, -apple-system, BlinkMacSystemFont, Helvetica, Arial" font-size="18" font-weight="800" fill="#111">C-04 Repair Retention / Rho</text>
<text x="658" y="676" font-family="Inter, ui-sans-serif, system-ui, -apple-system, BlinkMacSystemFont, Helvetica, Arial" font-size="14" fill="#3a3a3a">How much of the repair should be retained</text>
<text x="658" y="695" font-family="Inter, ui-sans-serif, system-ui, -apple-system, BlinkMacSystemFont, Helvetica, Arial" font-size="14" fill="#3a3a3a">under executable feedback.</text>
<path d="M 659.719037934512 757.0870465374464 C 641.719037934512 757.0870465374464 637.719037934512 761.0870465374464 637.719037934512 779.0870465374464 L 637.719037934512 847.7281237154712 C 637.719037934512 864.7281237154712 642.719037934512 869.7281237154712 659.719037934512 869.7281237154712 L 1046.4837468795013 869.7281237154712 C 1063.4837468795013 869.7281237154712 1068.4837468795013 864.7281237154712 1068.4837468795013 847.7281237154712 L 1068.4837468795013 779.0870465374464 C 1068.4837468795013 762.0870465374464 1063.4837468795013 757.0870465374464 1046.4837468795013 757.0870465374464 Z" fill="#fffaf0" stroke="#f2b84b" stroke-width="2.2" opacity="0.92"/>
<path d="M 658.4479791136589 758.8223696951521 C 640.4479791136589 758.8223696951521 636.4479791136589 762.8223696951521 636.4479791136589 780.8223696951521 L 636.4479791136589 848.5815764946361 C 636.4479791136589 865.5815764946361 641.4479791136589 870.5815764946361 658.4479791136589 870.5815764946361 L 1045.537810316301 870.5815764946361 C 1062.537810316301 870.5815764946361 1067.537810316301 865.5815764946361 1067.537810316301 848.5815764946361 L 1067.537810316301 780.8223696951521 C 1067.537810316301 763.8223696951521 1062.537810316301 758.8223696951521 1045.537810316301 758.8223696951521 Z" fill="none" stroke="#f2b84b" stroke-width="1.3" opacity="0.55"/>
<text x="658" y="792" font-family="Inter, ui-sans-serif, system-ui, -apple-system, BlinkMacSystemFont, Helvetica, Arial" font-size="18" font-weight="800" fill="#111">C-05 DR Frontier</text>
<text x="658" y="820" font-family="Inter, ui-sans-serif, system-ui, -apple-system, BlinkMacSystemFont, Helvetica, Arial" font-size="14" fill="#3a3a3a">The training frontier that probes the GMT</text>
<text x="658" y="839" font-family="Inter, ui-sans-serif, system-ui, -apple-system, BlinkMacSystemFont, Helvetica, Arial" font-size="14" fill="#3a3a3a">executable boundary.</text>
<path d="M 1173.754995299838 91.6098053600872 C 1155.754995299838 91.6098053600872 1151.754995299838 95.6098053600872 1151.754995299838 113.6098053600872 L 1151.754995299838 123.3800138245133 C 1151.754995299838 140.3800138245133 1156.754995299838 145.3800138245133 1173.754995299838 145.3800138245133 L 1630.065432775329 145.3800138245133 C 1647.065432775329 145.3800138245133 1652.065432775329 140.3800138245133 1652.065432775329 123.3800138245133 L 1652.065432775329 113.6098053600872 C 1652.065432775329 96.6098053600872 1647.065432775329 91.6098053600872 1630.065432775329 91.6098053600872 Z" fill="#66a96b" stroke="#151515" stroke-width="2.2" opacity="0.92"/>
<path d="M 1173.3366691121482 92.11123571805948 C 1155.3366691121482 92.11123571805948 1151.3366691121482 96.11123571805948 1151.3366691121482 114.11123571805948 L 1151.3366691121482 124.43699877788532 C 1151.3366691121482 141.43699877788532 1156.3366691121482 146.43699877788532 1173.3366691121482 146.43699877788532 L 1628.9460235016727 146.43699877788532 C 1645.9460235016727 146.43699877788532 1650.9460235016727 141.43699877788532 1650.9460235016727 124.43699877788532 L 1650.9460235016727 114.11123571805948 C 1650.9460235016727 97.11123571805948 1645.9460235016727 92.11123571805948 1628.9460235016727 92.11123571805948 Z" fill="none" stroke="#151515" stroke-width="1.3" opacity="0.55"/>
<text x="1176" y="128" font-family="Inter, ui-sans-serif, system-ui, -apple-system, BlinkMacSystemFont, Helvetica, Arial" font-size="24" font-weight="800" fill="#111">T3 Engineering Owners</text>
<path d="M 1207.1890907719353 182.20394647760259 C 1189.1890907719353 182.20394647760259 1185.1890907719353 186.20394647760259 1185.1890907719353 204.20394647760259 L 1185.1890907719353 272.86196467759873 C 1185.1890907719353 289.86196467759873 1190.1890907719353 294.86196467759873 1207.1890907719353 294.86196467759873 L 1594.3346238222584 294.86196467759873 C 1611.3346238222584 294.86196467759873 1616.3346238222584 289.86196467759873 1616.3346238222584 272.86196467759873 L 1616.3346238222584 204.20394647760259 C 1616.3346238222584 187.20394647760259 1611.3346238222584 182.20394647760259 1594.3346238222584 182.20394647760259 Z" fill="#fffaf0" stroke="#66a96b" stroke-width="2.2" opacity="0.92"/>
<path d="M 1208.3467090119243 182.56886049783935 C 1190.3467090119243 182.56886049783935 1186.3467090119243 186.56886049783935 1186.3467090119243 204.56886049783935 L 1186.3467090119243 272.46828455039486 C 1186.3467090119243 289.46828455039486 1191.3467090119243 294.46828455039486 1208.3467090119243 294.46828455039486 L 1595.465339951918 294.46828455039486 C 1612.465339951918 294.46828455039486 1617.465339951918 289.46828455039486 1617.465339951918 272.46828455039486 L 1617.465339951918 204.56886049783935 C 1617.465339951918 187.56886049783935 1612.465339951918 182.56886049783935 1595.465339951918 182.56886049783935 Z" fill="none" stroke="#66a96b" stroke-width="1.3" opacity="0.55"/>
<text x="1206" y="216" font-family="Inter, ui-sans-serif, system-ui, -apple-system, BlinkMacSystemFont, Helvetica, Arial" font-size="18" font-weight="800" fill="#111">M-01 HSL Proposal</text>
<text x="1206" y="244" font-family="Inter, ui-sans-serif, system-ui, -apple-system, BlinkMacSystemFont, Helvetica, Arial" font-size="14" fill="#3a3a3a">Produces the clean-oriented task-space repair</text>
<text x="1206" y="263" font-family="Inter, ui-sans-serif, system-ui, -apple-system, BlinkMacSystemFont, Helvetica, Arial" font-size="14" fill="#3a3a3a">candidate.</text>
<path d="M 1208.4945967061358 325.7804200674873 C 1190.4945967061358 325.7804200674873 1186.4945967061358 329.7804200674873 1186.4945967061358 347.7804200674873 L 1186.4945967061358 416.3413995001756 C 1186.4945967061358 433.3413995001756 1191.4945967061358 438.3413995001756 1208.4945967061358 438.3413995001756 L 1594.9697994621529 438.3413995001756 C 1611.9697994621529 438.3413995001756 1616.9697994621529 433.3413995001756 1616.9697994621529 416.3413995001756 L 1616.9697994621529 347.7804200674873 C 1616.9697994621529 330.7804200674873 1611.9697994621529 325.7804200674873 1594.9697994621529 325.7804200674873 Z" fill="#fffaf0" stroke="#66a96b" stroke-width="2.2" opacity="0.92"/>
<path d="M 1207.6267141147284 327.6486590856599 C 1189.6267141147284 327.6486590856599 1185.6267141147284 331.6486590856599 1185.6267141147284 349.6486590856599 L 1185.6267141147284 416.8975067630462 C 1185.6267141147284 433.8975067630462 1190.6267141147284 438.8975067630462 1207.6267141147284 438.8975067630462 L 1594.5803791502985 438.8975067630462 C 1611.5803791502985 438.8975067630462 1616.5803791502985 433.8975067630462 1616.5803791502985 416.8975067630462 L 1616.5803791502985 349.6486590856599 C 1616.5803791502985 332.6486590856599 1611.5803791502985 327.6486590856599 1594.5803791502985 327.6486590856599 Z" fill="none" stroke="#66a96b" stroke-width="1.3" opacity="0.55"/>
<text x="1206" y="360" font-family="Inter, ui-sans-serif, system-ui, -apple-system, BlinkMacSystemFont, Helvetica, Arial" font-size="18" font-weight="800" fill="#111">M-02 ExecutableFloor</text>
<text x="1206" y="388" font-family="Inter, ui-sans-serif, system-ui, -apple-system, BlinkMacSystemFont, Helvetica, Arial" font-size="14" fill="#3a3a3a">Centralizes floor value, safe/adapt decision,</text>
<text x="1206" y="407" font-family="Inter, ui-sans-serif, system-ui, -apple-system, BlinkMacSystemFont, Helvetica, Arial" font-size="14" fill="#3a3a3a">and diagnostics.</text>
<path d="M 1207.648493398432 470.48992086004 C 1189.648493398432 470.48992086004 1185.648493398432 474.48992086004 1185.648493398432 492.48992086004 L 1185.648493398432 560.0610866743373 C 1185.648493398432 577.0610866743373 1190.648493398432 582.0610866743373 1207.648493398432 582.0610866743373 L 1593.082929896802 582.0610866743373 C 1610.082929896802 582.0610866743373 1615.082929896802 577.0610866743373 1615.082929896802 560.0610866743373 L 1615.082929896802 492.48992086004 C 1615.082929896802 475.48992086004 1610.082929896802 470.48992086004 1593.082929896802 470.48992086004 Z" fill="#fffaf0" stroke="#66a96b" stroke-width="2.2" opacity="0.92"/>
<path d="M 1208.832865462068 468.4409808245633 C 1190.832865462068 468.4409808245633 1186.832865462068 472.4409808245633 1186.832865462068 490.4409808245633 L 1186.832865462068 559.6725856737618 C 1186.832865462068 576.6725856737618 1191.832865462068 581.6725856737618 1208.832865462068 581.6725856737618 L 1594.1038473463734 581.6725856737618 C 1611.1038473463734 581.6725856737618 1616.1038473463734 576.6725856737618 1616.1038473463734 559.6725856737618 L 1616.1038473463734 490.4409808245633 C 1616.1038473463734 473.4409808245633 1611.1038473463734 468.4409808245633 1594.1038473463734 468.4409808245633 Z" fill="none" stroke="#66a96b" stroke-width="1.3" opacity="0.55"/>
<text x="1206" y="504" font-family="Inter, ui-sans-serif, system-ui, -apple-system, BlinkMacSystemFont, Helvetica, Arial" font-size="18" font-weight="800" fill="#111">M-03 State Alpha Branch</text>
<text x="1206" y="532" font-family="Inter, ui-sans-serif, system-ui, -apple-system, BlinkMacSystemFont, Helvetica, Arial" font-size="14" fill="#3a3a3a">Estimates state risk and conservative routing</text>
<text x="1206" y="551" font-family="Inter, ui-sans-serif, system-ui, -apple-system, BlinkMacSystemFont, Helvetica, Arial" font-size="14" fill="#3a3a3a">pressure.</text>
<path d="M 1208.3709208427754 614.8214326964953 C 1190.3709208427754 614.8214326964953 1186.3709208427754 618.8214326964953 1186.3709208427754 636.8214326964953 L 1186.3709208427754 703.0625457513961 C 1186.3709208427754 720.0625457513961 1191.3709208427754 725.0625457513961 1208.3709208427754 725.0625457513961 L 1594.0997962188121 725.0625457513961 C 1611.0997962188121 725.0625457513961 1616.0997962188121 720.0625457513961 1616.0997962188121 703.0625457513961 L 1616.0997962188121 636.8214326964953 C 1616.0997962188121 619.8214326964953 1611.0997962188121 614.8214326964953 1594.0997962188121 614.8214326964953 Z" fill="#fffaf0" stroke="#66a96b" stroke-width="2.2" opacity="0.92"/>
<path d="M 1209.3964355840421 614.1696535719806 C 1191.3964355840421 614.1696535719806 1187.3964355840421 618.1696535719806 1187.3964355840421 636.1696535719806 L 1187.3964355840421 705.5963321149168 C 1187.3964355840421 722.5963321149168 1192.3964355840421 727.5963321149168 1209.3964355840421 727.5963321149168 L 1592.4063277773735 727.5963321149168 C 1609.4063277773735 727.5963321149168 1614.4063277773735 722.5963321149168 1614.4063277773735 705.5963321149168 L 1614.4063277773735 636.1696535719806 C 1614.4063277773735 619.1696535719806 1609.4063277773735 614.1696535719806 1592.4063277773735 614.1696535719806 Z" fill="none" stroke="#66a96b" stroke-width="1.3" opacity="0.55"/>
<text x="1206" y="648" font-family="Inter, ui-sans-serif, system-ui, -apple-system, BlinkMacSystemFont, Helvetica, Arial" font-size="18" font-weight="800" fill="#111">M-04 Structured Rho Update</text>
<text x="1206" y="676" font-family="Inter, ui-sans-serif, system-ui, -apple-system, BlinkMacSystemFont, Helvetica, Arial" font-size="14" fill="#3a3a3a">Updates repair retention through structured</text>
<text x="1206" y="695" font-family="Inter, ui-sans-serif, system-ui, -apple-system, BlinkMacSystemFont, Helvetica, Arial" font-size="14" fill="#3a3a3a">advantage feedback.</text>
<path d="M 1208.2187113121763 757.9613776745973 C 1190.2187113121763 757.9613776745973 1186.2187113121763 761.9613776745973 1186.2187113121763 779.9613776745973 L 1186.2187113121763 847.5153790659169 C 1186.2187113121763 864.5153790659169 1191.2187113121763 869.5153790659169 1208.2187113121763 869.5153790659169 L 1593.8009113823064 869.5153790659169 C 1610.8009113823064 869.5153790659169 1615.8009113823064 864.5153790659169 1615.8009113823064 847.5153790659169 L 1615.8009113823064 779.9613776745973 C 1615.8009113823064 762.9613776745973 1610.8009113823064 757.9613776745973 1593.8009113823064 757.9613776745973 Z" fill="#fffaf0" stroke="#66a96b" stroke-width="2.2" opacity="0.92"/>
<path d="M 1207.9343420468153 757.6615493499208 C 1189.9343420468153 757.6615493499208 1185.9343420468153 761.6615493499208 1185.9343420468153 779.6615493499208 L 1185.9343420468153 848.524908321225 C 1185.9343420468153 865.524908321225 1190.9343420468153 870.524908321225 1207.9343420468153 870.524908321225 L 1593.1761444120589 870.524908321225 C 1610.1761444120589 870.524908321225 1615.1761444120589 865.524908321225 1615.1761444120589 848.524908321225 L 1615.1761444120589 779.6615493499208 C 1615.1761444120589 762.6615493499208 1610.1761444120589 757.6615493499208 1593.1761444120589 757.6615493499208 Z" fill="none" stroke="#66a96b" stroke-width="1.3" opacity="0.55"/>
<text x="1206" y="792" font-family="Inter, ui-sans-serif, system-ui, -apple-system, BlinkMacSystemFont, Helvetica, Arial" font-size="18" font-weight="800" fill="#111">M-05 DR Curriculum</text>
<text x="1206" y="820" font-family="Inter, ui-sans-serif, system-ui, -apple-system, BlinkMacSystemFont, Helvetica, Arial" font-size="14" fill="#3a3a3a">Samples perturbation strength near the</text>
<text x="1206" y="839" font-family="Inter, ui-sans-serif, system-ui, -apple-system, BlinkMacSystemFont, Helvetica, Arial" font-size="14" fill="#3a3a3a">recoverable frontier.</text>
<path d="M 1208.8117707834317 901.5430713436217 C 1190.8117707834317 901.5430713436217 1186.8117707834317 905.5430713436217 1186.8117707834317 923.5430713436217 L 1186.8117707834317 992.3267533518447 C 1186.8117707834317 1009.3267533518447 1191.8117707834317 1014.3267533518447 1208.8117707834317 1014.3267533518447 L 1593.6110621729022 1014.3267533518447 C 1610.6110621729022 1014.3267533518447 1615.6110621729022 1009.3267533518447 1615.6110621729022 992.3267533518447 L 1615.6110621729022 923.5430713436217 C 1615.6110621729022 906.5430713436217 1610.6110621729022 901.5430713436217 1593.6110621729022 901.5430713436217 Z" fill="#fffaf0" stroke="#66a96b" stroke-width="2.2" opacity="0.92"/>
<path d="M 1207.2232212841568 901.3388056939336 C 1189.2232212841568 901.3388056939336 1185.2232212841568 905.3388056939336 1185.2232212841568 923.3388056939336 L 1185.2232212841568 992.698762020329 C 1185.2232212841568 1009.698762020329 1190.2232212841568 1014.698762020329 1207.2232212841568 1014.698762020329 L 1594.5554806981359 1014.698762020329 C 1611.5554806981359 1014.698762020329 1616.5554806981359 1009.698762020329 1616.5554806981359 992.698762020329 L 1616.5554806981359 923.3388056939336 C 1616.5554806981359 906.3388056939336 1611.5554806981359 901.3388056939336 1594.5554806981359 901.3388056939336 Z" fill="none" stroke="#66a96b" stroke-width="1.3" opacity="0.55"/>
<text x="1206" y="936" font-family="Inter, ui-sans-serif, system-ui, -apple-system, BlinkMacSystemFont, Helvetica, Arial" font-size="18" font-weight="800" fill="#111">M-06 Diagnostics</text>
<text x="1206" y="964" font-family="Inter, ui-sans-serif, system-ui, -apple-system, BlinkMacSystemFont, Helvetica, Arial" font-size="14" fill="#3a3a3a">Proves the live path and exposes concept-code</text>
<text x="1206" y="983" font-family="Inter, ui-sans-serif, system-ui, -apple-system, BlinkMacSystemFont, Helvetica, Arial" font-size="14" fill="#3a3a3a">mismatches.</text>
<path d="M 520 238 Q 580.8794691608346 230.5493547364822 638 238" fill="none" stroke="#333" stroke-width="3" stroke-linecap="round"/><path d="M 518.686188785643 237.47167428622924 Q 579.4479801492416 228.37164135513012 637.934297179223 238.64372555984664" fill="none" stroke="#333" stroke-width="1.4" stroke-linecap="round" opacity="0.55"/>
<path d="M 520 382 Q 573.8035409140284 383.0321884504083 638 382" fill="none" stroke="#333" stroke-width="3" stroke-linecap="round"/><path d="M 519.8527798160721 380.81909300006373 Q 575.5078089978779 385.1008691296938 638.1323344132816 380.6416489203584" fill="none" stroke="#333" stroke-width="1.4" stroke-linecap="round" opacity="0.55"/>
<path d="M 520 526 Q 569.4255338612711 523.4036007387331 638 526" fill="none" stroke="#333" stroke-width="3" stroke-linecap="round"/><path d="M 518.6797785405956 525.7144600572756 Q 567.2116836927526 524.1778061103323 638.4810841499202 527.1894604613481" fill="none" stroke="#333" stroke-width="1.4" stroke-linecap="round" opacity="0.55"/>
<path d="M 1068 238 Q 1134.1074438427459 242.30661998783762 1186 238" fill="none" stroke="#333" stroke-width="3" stroke-linecap="round"/><path d="M 1067.340302814584 237.58684089007875 Q 1132.7934591467201 242.77888653018454 1187.4898092126296 238.44130654143737" fill="none" stroke="#333" stroke-width="1.4" stroke-linecap="round" opacity="0.55"/>
<path d="M 1068 382 Q 1116.5737644992478 377.8853796124895 1186 382" fill="none" stroke="#333" stroke-width="3" stroke-linecap="round"/><path d="M 1067.297584340171 381.9603497242606 Q 1115.5849423993495 378.19150110350165 1185.5357177181431 383.3056311377004" fill="none" stroke="#333" stroke-width="1.4" stroke-linecap="round" opacity="0.55"/>
<path d="M 1068 526 Q 1117.6702857958735 522.821160314983 1186 526" fill="none" stroke="#333" stroke-width="3" stroke-linecap="round"/><path d="M 1066.7047065627194 524.6575294122722 Q 1117.2164081206738 523.4536131821042 1185.4944578885988 525.8215076915876" fill="none" stroke="#333" stroke-width="1.4" stroke-linecap="round" opacity="0.55"/>
<path d="M 1068 670 Q 1138.4756094324985 678.6330146749242 1186 670" fill="none" stroke="#333" stroke-width="3" stroke-linecap="round"/><path d="M 1067.9628102191782 670.8933614639172 Q 1137.394997111296 677.8890546965658 1186.9332020747952 668.7183885509803" fill="none" stroke="#333" stroke-width="1.4" stroke-linecap="round" opacity="0.55"/>
<path d="M 1068 814 Q 1121.7602255822494 807.153449860969 1186 814" fill="none" stroke="#333" stroke-width="3" stroke-linecap="round"/><path d="M 1067.6912511390547 814.1450531725422 Q 1123.2311442899954 808.7027110423223 1185.9331651354296 813.4317313616598" fill="none" stroke="#333" stroke-width="1.4" stroke-linecap="round" opacity="0.55"/>
<path d="M 1616 382 Q 1397.5305597298866 667.5592914539702 1186 958" fill="none" stroke="#333" stroke-width="3" stroke-linecap="round"/><path d="M 1614.6536166631631 381.05808704172523 Q 1397.2774144395153 665.5238493648612 1185.879990080026 958.9500684979794" fill="none" stroke="#333" stroke-width="1.4" stroke-linecap="round" opacity="0.55"/>
<path d="M 1616 526 Q 1390.0028281071573 740.3636715501634 1186 958" fill="none" stroke="#333" stroke-width="3" stroke-linecap="round"/><path d="M 1614.7496462279014 525.1036901239786 Q 1388.4069864289486 742.2835321333205 1186.3559054885209 958.9404583552787" fill="none" stroke="#333" stroke-width="1.4" stroke-linecap="round" opacity="0.55"/>
<path d="M 1616 670 Q 1412.290815785902 805.3850184546827 1186 958" fill="none" stroke="#333" stroke-width="3" stroke-linecap="round"/><path d="M 1614.729586358102 669.7374269821157 Q 1412.7719989299403 807.4314905749197 1185.861062170654 958.7640593797405" fill="none" stroke="#333" stroke-width="1.4" stroke-linecap="round" opacity="0.55"/>
<path d="M 1616 814 Q 1405.8693643399165 889.3225156452536 1186 958" fill="none" stroke="#333" stroke-width="3" stroke-linecap="round"/><path d="M 1615.3531705822606 815.3653163498384 Q 1407.9901223930592 888.6898496122194 1185.8378818241908 956.9065041311987" fill="none" stroke="#333" stroke-width="1.4" stroke-linecap="round" opacity="0.55"/>
</svg>